PathFileType	4	(X/Y/Z)	C:/Users/opensim2020/Desktop/walking_exp_matlab/subject02_walking14_straight_04.trc																																																																																																																									
DataRate	CameraRate	NumFrames	NumMarkers	Units	OrigDataRate	OrigDataStartFrame	OrigNumFrames																																																																																																																					
100	100	4	41	mm	100	1746	137																																																																																																																					
Frame#	Time	LFHD			RFHD			LBHD			RBHD			C7			T10			CLAV			STRN			RBAK			LSHO			LUPA			LELB			LFRM			LWRA			LWRB			LFIN			RSHO			RUPA			RELB			RFRM			RWRA			RWRB			RFIN			LASI			RASI			LPSI			RPSI			LTHI			LKNE			LTIB			LANK			LHEE			LTOE			RTHI			RKNE			RTIB			RANK			RHEE			RTOE			*39			*40		
		X1	Y1	Z1	X2	Y2	Z2	X3	Y3	Z3	X4	Y4	Z4	X5	Y5	Z5	X6	Y6	Z6	X7	Y7	Z7	X8	Y8	Z8	X9	Y9	Z9	X10	Y10	Z10	X11	Y11	Z11	X12	Y12	Z12	X13	Y13	Z13	X14	Y14	Z14	X15	Y15	Z15	X16	Y16	Z16	X17	Y17	Z17	X18	Y18	Z18	X19	Y19	Z19	X20	Y20	Z20	X21	Y21	Z21	X22	Y22	Z22	X23	Y23	Z23	X24	Y24	Z24	X25	Y25	Z25	X26	Y26	Z26	X27	Y27	Z27	X28	Y28	Z28	X29	Y29	Z29	X30	Y30	Z30	X31	Y31	Z31	X32	Y32	Z32	X33	Y33	Z33	X34	Y34	Z34	X35	Y35	Z35	X36	Y36	Z36	X37	Y37	Z37	X38	Y38	Z38	X39	Y39	Z39	X40	Y40	Z40	X41	Y41	Z41
																																																																																																																												
69	0.68	15.7077	1714.59338	1019.8609	13.15014	1704.0675	1163.62231	-111.7944	1635.10254	1012.64825	-126.99038	1622.92297	1156.68201	-160.68556	1489.00342	1081.12952	-187.08028	1211.68091	1092.64258	-14.52556	1434.78906	1085.61804	55.26602	1270.82532	1102.17371	-206.00838	1308.13843	1138.48364	-69.83544	1468.6499	909.27277	-36.31752	1275.45203	822.20557	10.10362	1138.31506	804.45654	112.00484	1058.67908	845.14709	210.51187	1033.24036	937.92523	203.98761	996.03772	895.90717	263.0416	983.62689	920.02258	-107.21194	1461.61902	1274.21338	-165.58519	1278.12109	1351.5658	-174.30283	1135.85156	1374.56824	-176.00209	1019.73999	1406.37415	-155.02312	883.82672	1407.25635	-207.20815	894.87292	1427.63928	-190.43404	824.14197	1439.73059	45.7936	946.14178	983.0899	61.47979	964.01788	1227.11145	-157.96402	996.88892	1058.21326	-158.20589	1009.81482	1176.19409	-71.64851	638.09045	920.22815	-127.56622	459.40643	934.25244	-289.98605	363.89954	940.573	-445.27048	208.90549	970.99512	-474.14575	216.6774	1029.21289	-401.61249	58.14853	950.20172	65.36522	673.08679	1312.16577	116.07262	470.3201	1273.19482	89.26529	283.52917	1290.92151	73.35211	91.50777	1264.20984	33.14211	39.08596	1213.83997	226.12599	37.31104	1269.27551	-90.14825	1781.26611	1104.03906	-2845.25342	1034.203	3360.40088
70	0.69	29.49972	1717.04102	1021.50665	26.94655	1706.10706	1165.04993	-98.41028	1637.50452	1014.54089	-113.48793	1625.41516	1158.33862	-147.59595	1491.4292	1083.40637	-173.58168	1213.92542	1095.48645	-1.4375	1437.25159	1086.79517	68.8079	1273.27283	1102.98438	-192.16273	1310.23486	1140.70618	-58.12588	1470.74561	910.79706	-26.31749	1276.7771	824.39471	18.48652	1139.27966	807.04883	119.12785	1056.30811	845.76984	218.81627	1027.35547	936.21967	209.89912	990.20782	893.87622	269.03336	976.32227	916.42932	-93.20224	1464.41064	1275.72791	-148.99051	1280.47278	1354.73352	-155.59015	1137.97888	1377.89795	-155.4232	1021.92487	1410.0918	-132.58621	886.31934	1410.93787	-184.68254	896.69867	1431.69873	-166.73248	826.17255	1443.93188	59.28838	947.28845	986.00769	75.33322	966.78223	1229.90393	-144.37775	999.0733	1060.27063	-144.63324	1011.71381	1178.17456	-49.47664	637.01886	922.80005	-99.93983	458.09805	935.88501	-263.32141	366.35471	942.78326	-421.05612	215.53432	976.13318	-449.75342	221.7791	1035.46912	-378.42233	65.6541	950.23816	79.53003	675.89343	1314.08496	120.6562	469.5502	1274.88757	91.0718	283.17657	1291.25415	73.35368	91.6451	1264.19373	32.98779	39.11978	1213.86218	225.96924	37.3081	1269.21899	-76.21442	1783.84375	1105.83276	-2845.9231	1034.32251	3357.39258
71	0.7	42.77724	1719.1814	1022.61987	40.77331	1708.27002	1166.32422	-84.96428	1640.57373	1016.28735	-99.97176	1628.15051	1159.89429	-134.51744	1494.18323	1085.34119	-160.25682	1216.45081	1098.29248	11.76423	1440.0354	1087.62097	82.11068	1275.92017	1103.45581	-179.48468	1313.04529	1143.13867	-46.59651	1473.13403	912.12952	-16.16659	1278.35779	826.72693	26.94748	1140.43738	809.7074	125.14223	1053.93738	845.91217	225.87367	1020.68744	933.97626	214.92311	984.48163	891.50146	274.17209	968.23535	912.56696	-78.82915	1467.4856	1277.27332	-132.00983	1282.86292	1356.83118	-136.63785	1140.57007	1381.46851	-134.44029	1024.55554	1413.65918	-109.7002	889.13177	1414.20032	-161.50226	899.03729	1435.83252	-142.21547	829.0672	1448.4707	72.72531	948.88287	988.5058	88.87749	969.19995	1231.95105	-131.35281	1001.77948	1062.59009	-131.45689	1014.04193	1180.23596	-28.32024	637.92279	925.00507	-72.47224	457.9288	938.12549	-236.35138	369.397	946.38043	-395.34756	220.64143	981.16516	-424.10428	225.53339	1041.04724	-352.18356	72.01661	950.72961	90.34968	677.82709	1315.13367	125.30051	469.13556	1276.29993	93.04105	283.03543	1292.27209	73.47558	91.76449	1264.26074	32.8012	39.18015	1213.92651	225.85597	37.35049	1269.20703	-62.17271	1786.32935	1107.43188	-2845.20435	1034.16772	3360.27734
72	0.71	56.45613	1721.7677	1023.85968	54.76717	1710.44763	1167.66174	-72.00674	1643.90454	1017.42419	-86.3044	1630.95264	1161.13293	-121.18024	1497.1825	1087.3219	-147.11992	1219.28088	1100.86279	24.47235	1442.73193	1088.32861	94.06362	1278.41113	1103.79102	-166.14873	1316.18201	1146.64246	-35.25094	1475.74854	913.3161	-6.67268	1280.42468	828.54285	35.13453	1141.84241	812.42798	131.53633	1051.72253	845.901	232.33897	1013.57123	931.01379	219.23564	978.55859	888.93231	278.24545	959.53418	908.23547	-63.75325	1470.66504	1278.64429	-114.78641	1285.72437	1359.27429	-117.37354	1143.23535	1384.27356	-113.01405	1027.4187	1416.95813	-86.27665	892.47858	1417.67822	-137.78537	901.41998	1439.56213	-117.27143	832.09619	1452.50757	85.44181	951.16846	989.71075	102.20657	972.034	1233.52698	-118.81362	1004.89166	1065.04492	-118.65154	1016.69299	1182.37878	-7.16219	639.82477	927.52899	-45.17188	459.22949	940.99481	-208.58247	372.07056	950.65546	-368.22696	224.13356	985.73132	-397.34921	227.99348	1046.08276	-323.92142	77.24803	951.92358	98.21329	678.48492	1315.89417	130.31726	469.00293	1277.14539	95.31541	283.09061	1293.57825	73.57996	91.89264	1264.38562	32.67692	39.20969	1213.97778	225.7375	37.38689	1269.28064	-48.22317	1789.03467	1108.93176	-2845.98511	1034.29382	3357.43628
